<svg width="256" height="256" viewBox="0 0 256 256" fill="none" xmlns="http://www.w3.org/2000/svg">
<g clip-path="url(#clip0_1_78)">
<path d="M155.757 123.757C153.414 126.101 153.414 129.899 155.757 132.243L193.941 170.426C196.284 172.77 200.083 172.77 202.426 170.426C204.77 168.083 204.77 164.284 202.426 161.941L168.485 128L202.426 94.0589C204.77 91.7157 204.77 87.9167 202.426 85.5736C200.083 83.2304 196.284 83.2304 193.941 85.5736L155.757 123.757ZM256 122L160 122V134H256V122Z" fill="white"/>
<path d="M123.757 100.243C126.101 102.586 129.899 102.586 132.243 100.243L170.426 62.0589C172.77 59.7157 172.77 55.9167 170.426 53.5736C168.083 51.2304 164.284 51.2304 161.941 53.5736L128 87.5147L94.0589 53.5736C91.7157 51.2304 87.9167 51.2304 85.5736 53.5736C83.2304 55.9167 83.2304 59.7157 85.5736 62.0589L123.757 100.243ZM122 0V96H134V0L122 0Z" fill="white"/>
<path d="M132.243 155.757C129.899 153.414 126.101 153.414 123.757 155.757L85.5736 193.941C83.2304 196.284 83.2304 200.083 85.5736 202.426C87.9167 204.77 91.7157 204.77 94.0589 202.426L128 168.485L161.941 202.426C164.284 204.77 168.083 204.77 170.426 202.426C172.77 200.083 172.77 196.284 170.426 193.941L132.243 155.757ZM134 256V160H122V256H134Z" fill="white"/>
<path d="M100.243 132.243C102.586 129.899 102.586 126.101 100.243 123.757L62.0589 85.5736C59.7157 83.2304 55.9167 83.2304 53.5736 85.5736C51.2304 87.9167 51.2304 91.7157 53.5736 94.0589L87.5147 128L53.5736 161.941C51.2304 164.284 51.2304 168.083 53.5736 170.426C55.9167 172.77 59.7157 172.77 62.0589 170.426L100.243 132.243ZM0 134H96V122H0L0 134Z" fill="white"/>
</g>
<defs>
<clipPath id="clip0_1_78">
<rect width="256" height="256" fill="white" transform="matrix(0 1 -1 0 256 0)"/>
</clipPath>
</defs>
</svg>
