<svg width="256" height="256" viewBox="0 0 256 256" fill="none" xmlns="http://www.w3.org/2000/svg">
<path d="M197.05 143.95C199.784 146.683 204.216 146.683 206.95 143.95L251.497 99.402C254.231 96.6684 254.231 92.2362 251.497 89.5025C248.764 86.7689 244.332 86.7689 241.598 89.5025L202 129.101L162.402 89.5025C159.668 86.7689 155.236 86.7689 152.503 89.5025C149.769 92.2362 149.769 96.6684 152.503 99.402L197.05 143.95ZM195 39V139H209V39H195Z" fill="white"/>
<path d="M48.0503 143.95C50.7839 146.683 55.2161 146.683 57.9497 143.95L102.497 99.402C105.231 96.6684 105.231 92.2362 102.497 89.5025C99.7638 86.7689 95.3316 86.7689 92.598 89.5025L53 129.101L13.402 89.5025C10.6684 86.7689 6.2362 86.7689 3.50253 89.5025C0.768855 92.2362 0.768855 96.6684 3.50253 99.402L48.0503 143.95ZM46 39L46 139H60L60 39H46Z" fill="white"/>
<path d="M122.343 222.657C125.467 225.781 130.533 225.781 133.657 222.657L184.569 171.745C187.693 168.621 187.693 163.556 184.569 160.431C181.444 157.307 176.379 157.307 173.255 160.431L128 205.686L82.7452 160.431C79.621 157.307 74.5557 157.307 71.4315 160.431C68.3073 163.556 68.3073 168.621 71.4315 171.745L122.343 222.657ZM120 117V217H136V117H120Z" fill="white"/>
</svg>
