<svg width="256" height="256" viewBox="0 0 256 256" fill="none" xmlns="http://www.w3.org/2000/svg">
<path d="M143.95 58.9497C146.683 56.2161 146.683 51.7839 143.95 49.0503L99.402 4.50253C96.6684 1.76886 92.2362 1.76886 89.5025 4.50253C86.7689 7.2362 86.7689 11.6684 89.5025 14.402L129.101 54L89.5025 93.598C86.7689 96.3316 86.7689 100.764 89.5025 103.497C92.2362 106.231 96.6684 106.231 99.402 103.497L143.95 58.9497ZM39 61H139V47H39V61Z" fill="white"/>
<path d="M143.95 207.95C146.683 205.216 146.683 200.784 143.95 198.05L99.402 153.503C96.6684 150.769 92.2362 150.769 89.5025 153.503C86.7689 156.236 86.7689 160.668 89.5025 163.402L129.101 203L89.5025 242.598C86.7689 245.332 86.7689 249.764 89.5025 252.497C92.2362 255.231 96.6684 255.231 99.402 252.497L143.95 207.95ZM39 210H139V196H39V210Z" fill="white"/>
<path d="M222.657 133.657C225.781 130.533 225.781 125.467 222.657 122.343L171.745 71.4315C168.621 68.3073 163.556 68.3073 160.431 71.4315C157.307 74.5557 157.307 79.621 160.431 82.7452L205.686 128L160.431 173.255C157.307 176.379 157.307 181.444 160.431 184.569C163.556 187.693 168.621 187.693 171.745 184.569L222.657 133.657ZM117 136H217V120H117V136Z" fill="white"/>
</svg>
